<svg width="58" height="57" fill="none" xmlns="http://www.w3.org/2000/svg"><rect width="58" height="57" rx="6" fill="#202022"/><path d="M38.845 25.308h-2.461a3.696 3.696 0 00-3.693-3.692v-2.462a6.161 6.161 0 016.154 6.154z" fill="#fff"/><path d="M43.768 25.308h-2.461a8.625 8.625 0 00-8.616-8.616v-2.461a11.089 11.089 0 0111.077 11.077zm-9.436 10.439l2.757-2.757a2.668 2.668 0 012.876-.59l3.358 1.343a2.667 2.667 0 011.676 2.477v6.106a2.667 2.667 0 01-2.811 2.67c-23.535-1.466-28.288-21.4-29.17-29.033A2.66 2.66 0 0115.667 13h5.998a2.667 2.667 0 012.476 1.676l1.343 3.358a2.667 2.667 0 01-.59 2.876l-2.758 2.757s1.529 10.747 12.195 12.08z" fill="#fff"/></svg>