<svg width="40" height="40" fill="none" xmlns="http://www.w3.org/2000/svg"><path fill-rule="evenodd" clip-rule="evenodd" d="M20 40c11.046 0 20-8.954 20-20S31.046 0 20 0 0 8.954 0 20s8.954 20 20 20zm-9-27c0-1.1.9-2 2-2h14c1.1 0 2 .9 2 2v14c0 1.101-.9 2-2 2H13c-1.1 0-2-.899-2-2V13zm12.9 10.9a5.54 5.54 0 01-9.455-3.916c0-.338.043-.664.104-.984H13v7.216a.689.689 0 00.693.69h12.614a.69.69 0 00.693-.69V19h-1.581c.06.32.103.646.103.984A5.539 5.539 0 0123.9 23.9zm-7.113-5.24a3.46 3.46 0 106.392 2.648 3.46 3.46 0 00-6.392-2.648zM24.692 16h1.615a.694.694 0 00.693-.693v-1.616a.692.692 0 00-.694-.691h-1.615a.691.691 0 00-.691.691v1.617a.694.694 0 00.692.692z" fill="#FFCA40"/></svg>