<svg width="217" height="90" fill="none" xmlns="http://www.w3.org/2000/svg"><path fill-rule="evenodd" clip-rule="evenodd" d="M77.522 64.338l-.257.96-.558-.96v-2.265l-1.353-1.44v-1.439l-.201-.605-.038 6.709-5.32 7.255-19.498-.632H35.778s-10.33-3.76-11.286-3.307c-.266-.03-.518-.064-.764-.096h-.001c-1.768-.237-3.241-.433-7.633.96H8.276l1.579-46.167 1.998-.778v4.854h1.323v-5.816l1.094-.275v6.091h1.824v3.664h4.333v4.992h.912V17.86l7.616-3.343v12.87l2.462 2.197v-3.343l7.48-6.778v13.648h-3.102v.55h5.199V7.19h1.414V4.626h1.094V0h1.231v4.626h1.46V7.19h1.231v1.511h2.098v32.425h.775V24.273h6.932v14.334H54.4v.458h5.245V22.9l2.827 2.335v-8.289h.912v9.068l2.372 1.832v5.816h2.325v3.343h.73l-.32-17.77 5.701 2.84v5.45h1.003v-5.038l1.14.413v4.625h1.186v-4.167l2.189 1.19-2.189 39.791zm7.517-43.351c-1.792-.757-3.343-.188-3.76-.035-.06.021-.096.035-.108.035l1.909 1.402v.269l-.452.1-3.046-1.771v-3.438l-2.142-2v4.605l-1.071-.807v-1.882h-1.272v1.462l-.753-.37v-7.159h-2.376V7.734h-1.155v3.664h-2.142v4.25L54.497 8.7c-2.463.694-1.515 1.538-.733 1.874v3.328h-.881c.004.621.024 1.99.071 2.498.048.506.988.832 1.452.932v1.613c1.247 0 1.452.789 1.342 1.276-.506 1.634-1.734.908-1.984.242-.115-.305-.188-.259-.24-.203-.133.507.146.976.34 1.143.558.48 1.793.557 2.25-.57.43-1.433-.069-1.888-1.065-2.461v-1.9h.464v1.183h1.238a95.855 95.855 0 010-2.008c.01-.87-.51-1.406-.771-1.566v-2.446L81.064 23.93c-.107 1.112.845 2.857 2.94 2.892 1.676.03 2.54-1.732 2.761-2.617.083-.848-.088-2.527-1.726-3.218zM4.602 19.756c-1.637.69-1.809 2.37-1.725 3.218.222.884 1.085 2.646 2.76 2.617 2.43-.126 2.973-1.98 2.94-2.892l25.085-12.294v2.446c-.261.16-.78.696-.77 1.566.009.87.003 1.7 0 2.007h1.237v-1.183h.464v1.9c-.997.574-1.495 1.03-1.066 2.462.457 1.127 1.693 1.05 2.251.57.194-.167.473-.636.34-1.143-.052-.056-.125-.102-.24.203-.25.666-1.478 1.392-1.984-.242-.11-.487.094-1.276 1.342-1.276v-1.613c.464-.1 1.404-.426 1.452-.932.047-.507.067-1.877.07-2.498h-.88V9.344c.782-.336 1.73-1.18-.733-1.873l-7.331 3.716v-2.29L26.75 7.471h-.968V1.826h-1.29v5.645h-1.145l-.822 1.873v4.12l-7.228 3.862-.753.37v-1.462h-1.272v1.882l-1.071.807v-4.605l-2.142 2v3.438l-3.046 1.772-.452-.101v-.269l1.714-1.324c-1.486-.66-3.068-.327-3.674-.078zm29.462-9.595l1.15-.47h.126l-.063 2.983h-1.213V10.16zm21.317 1.296l-1.15-.47h-.127l.064 2.983h1.213v-2.513z" fill="#727070"/><path d="M50.934 69.186l-13.354.327-7.491-3.6.977-12.276 8.794-12.602c2.388-1.418 7.263-4.288 7.654-4.419.39-.13 3.42-1.8 4.885-2.618l18.24.654 5.699-8.51 2.443.327c3.257 1.44 1.9 4.092.814 5.237l-7.491 3.11.977.164-15.145 3.928c-8.599.13-15.633 10.856-18.076 16.202h3.094c-.109-.163.163-.098 2.117 1.473 1.954 1.572 2.117 4.147 1.954 5.238h2.606l.325 2.291c1.433.262 1.249 3.492.977 5.074z" fill="#BE8000"/><path d="M70.638 34.652l5.7-8.51 2.443.327c3.257 1.44 1.9 4.092.814 5.237l-7.491 3.11m-1.466-.164L52.4 33.998c-1.465.818-4.495 2.487-4.885 2.618-.391.131-5.266 3-7.654 4.42l-8.794 12.601-.977 12.275 7.49 3.601 13.355-.327c.27-1.582.456-4.812-.978-5.074l-.325-2.291h-2.606c.163-1.091 0-3.666-1.954-5.238-1.954-1.57-2.226-1.636-2.117-1.473H39.86c2.443-5.346 9.477-16.072 18.076-16.203l15.145-3.927-.977-.164-1.466-.164zm0 0l1.466.164-1.466-.164z" stroke="#000"/><path d="M43.442 32.034c.814.49 1.954 2.127 0 4.746v-4.746zM40 60.564l-1.956 4.128 1.69-4.35a.754.754 0 01.267.221zm33.39-25.93c.78-.348 1.696-.791 2.607-1.29a9.496 9.496 0 00-1.589 1.684l-1.017-.393zm6.798-3.415a9.33 9.33 0 00-1.695.561c.323-.238.624-.481.891-.726.584-.533 1.053-1.114 1.212-1.71a1.87 1.87 0 00-.243-1.56c-.215-.324-.52-.592-.861-.812.461.243.775.528.983.827.258.37.37.783.383 1.21.023.809-.315 1.645-.67 2.21zm-1.164-5.017l-.368.342a7.462 7.462 0 00-.555-.203h.534l.11-.145.976-1.31.434-.58h-4.633l-.032.326-.098.983h-.416l.258.258-.326-.047v-1.193h-2.177l.375.565.173.261-3.198.23 2.561-1.872.15-.109v-1.433l-.422.071-1.838.308-.546-.274-.117-.059-.127.03-13.313 3.1h-2.633l-2.523-1.426-.082-.047h-.711c-.18-.277-.353-.5-.52-.673-.2-.206-.407-.36-.627-.433a.835.835 0 00-.67.049c-.194.102-.337.27-.444.445-.212.346-.346.829-.432 1.306a9.98 9.98 0 00-.137 1.24l-.213.108a83.707 83.707 0 01.264-2.067c.272-.593.55-.936.802-1.122a.917.917 0 01.703-.196c.477.067.963.498 1.27.934l.089.128.154.022 1.14.164.112.016.101-.051c.59-.297 1.351-.441 2.083-.494a9.283 9.283 0 011.779.038l.073.01.072-.02c4.28-1.198 13.262-3.733 14.836-4.26.745-.25 1.175-.228 1.399-.155.214.07.245.182.247.197l.063.38.373-.086 15.145-3.437.218-.049.053-.217a1.1 1.1 0 01.285-.482 1.5 1.5 0 01.27-.223c.247.013.36.075.41.12.047.043.083.113.082.25-.002.272-.156.642-.34.94l-3.612 1.578-12.505 2.775-.567.126.362.456c.204.255.485.677.667 1.103.091.213.15.412.17.582.018.17-.007.284-.05.356l-.36.603.698-.054a6163.102 6163.102 0 017.623-.583l.713-.052.036-.003c-.45.368-.845.704-1.154.991l-2.117 1.964zm-20.84 52.876L68.249 75.4l1.623 8.152h-4.847l.831.65.717.56-3.91.263-3.444-.302-1.035-5.645zM34.358 60.056h2.635a.204.204 0 01.057.058.14.14 0 01.018.078.366.366 0 01-.026.12h-2.684v-.256z" fill="#000" stroke="#000"/><path d="M89.294 18.017c-.16.034-.303.07-.416.105.149-.062.287-.097.416-.105.605-.127 1.451-.206 1.864.105.054-1.2-.066-3.764-.978-4.419.38.055 1.499.197 2.932.327 1.433.131 1.683 3.328 1.628 4.91.434.164 1.27.95 1.14 2.783-.13 1.833-.814 9.383-1.14 12.93l-.326-.072-2.117 3.672 1.14-3.887-.651-.143-5.211 8.94.977 1.31-21.334 32.57c-.52 1.832-1.628 1.963-2.117 1.8v1.8h2.606v3.273l-1.628.818H62.17c4.56-.786 3.529-2.946 2.443-3.928l-.489-6.056L89.53 33.507c1.034-5.403 2.344-15.655-.235-15.49z" fill="#C18405"/><path d="M93.437 34.366l.977.215m-4.885-1.074c1.086-5.674 2.475-16.694-.651-15.385.542-.164 1.758-.393 2.28 0 .054-1.2-.066-3.764-.978-4.419.38.055 1.499.197 2.932.327 1.433.131 1.683 3.328 1.628 4.91.434.164 1.27.95 1.14 2.783-.13 1.833-.814 9.383-1.14 12.93l-.326-.072-4.885-1.074zm0 0L64.124 74.75l.489 6.056c1.086.982 2.117 3.142-2.443 3.928h3.909l1.628-.818v-3.274h-2.606v-1.8c.489.164 1.596.033 2.118-1.8l21.333-32.57-.977-1.309 5.21-8.94-3.256-.716zm0 0l3.257.716-3.257-.716zm3.257.716l.651.143-.651-.143zm.651.143l-1.14 3.887 2.117-3.672-.977-.215z" stroke="#000"/><path d="M93.202 16.117a9.945 9.945 0 01-.36 2.133h-.272c.068-.563.063-1.343-.04-2.097a6.334 6.334 0 00-.368-1.464 3.517 3.517 0 00-.22-.46h.858c.14.162.246.39.316.682.083.35.106.765.086 1.206z" fill="#000" stroke="#000"/><path d="M50.934 69.186l-13.354.327-.814-2.127 3.582-7.038-.651-.655c-2.085-.916-.76-3.273.163-4.419h3.094c3.582 1.637 4.397 5.401 3.908 6.71h2.606l.325 2.128c1.434.262 1.412 3.492 1.14 5.074z" fill="#A37412"/><path d="M43.117 56.911c-.706-.428-2.443-.534-3.746 2.467m.814 10.135c-.26-1.44-2.07-3.273-2.605-3.437.34-.765 1.07-1.47 1.43-2.291l1.175 5.728zm-1.174-5.728c.011.164.849.49 4.106.49h7.002c.38 0 1.108.95.977 4.747l-12.085-5.237zm0 0c.32-.728.621-1.417.858-1.964h7.807l-8.665 1.964zm-4.688 2.127l-.163.164.163-.163zm-.163.164c.651-1.364 2.117-4.648 2.117-4.91l.163-.818-2.28 5.728zm0 0l-1.466-.49 1.466-2.456c.271-.545 1.14-2.095 1.14-2.618l-1.14 5.564zm1.466-6.219c.108-.6.13-2.095-.652-1.964l.652 1.964zm-.489-3.437c.489.164 1.856 1.768 1.466 3.6l-1.466-3.6zm4.732-1.31c-.543.68-1.67 2.35-1.15 3.601.175.176.41.415.652.667l.498-4.267zm.316 5.147a27.866 27.866 0 00-.814-.879l.814.879zm0 .255c.272-1.037 1.824-3.208 2.606-2.292l-2.606 2.292z" stroke="#000"/><path d="M31.717 48.891v5.892c9.608-11.947 15.47-14.566 18.24-15.875 2.214-1.048 11.996-3.165 16.61-4.092-.163-.055-.033-.13 1.791 0 2.28.164 1.791 0 6.188-1.964 4.3-.524 4.288-3.819 3.746-5.4-.272-.6-1.987-1.834-6.677-1.965-4.505.437-14.917 1.342-20.519 1.473-5.602.131-9.391 3.11-10.585 4.583L31.717 48.89z" fill="#FFCA40"/><path d="M78.618 26.305l9.12-9.328c.216-1.31 1.074-3.83 2.767-3.438.49.982 1.27 3.11.49 3.765-.728.609-1.511.887-1.88.967.508-.084 1.39.04 1.39 1.16 0 1.179.978 6.22-.814 13.912l-9.933 15.548-15.797 25.86.814 6.219c.435.437 1.043 1.702 0 3.273l-4.07.654.162-3.109 2.443-.327-.489-4.419-1.954 1.964c.434-1.146.977-3.503-.326-3.765l-.163-.49 14.82-40.59c.814-.6 2.638-1.833 3.42-1.964 1.303-.991 3.257-3.446.651-5.333l-.651-.559z" fill="#FFCA40"/><path d="M60.704 75.733c-.782-.918-1.628 0-1.628.654v2.291c.054.819 0 2.586-.652 3.11-.651.524-.651 1.636-.488 2.128.325.981 1.465 1.767 2.117.981.651-.785.488-2.509.325-3.273l.163-2.945c.782-1.834.442-2.62.163-2.946zm30.29-41.735l-.651-.164-7.002 11.293c-.327.109-.945.524-.815 1.31.13.785.815-.11 1.14-.655l.651.982c1.433 2.225 2.443-.6 2.769-2.292l3.908-10.474z" fill="#FFCA40"/><path d="M63.961 74.75l15.797-25.859 9.933-15.548c1.792-7.692.814-12.733.814-13.912 0-1.178-.977-1.254-1.465-1.145.326-.055 1.172-.328 1.954-.982.782-.655 0-2.782-.489-3.764-1.693-.393-2.55 2.127-2.767 3.437l-9.12 9.328.651.559c2.606 1.887.652 4.342-.651 5.333-.782.131-2.606 1.364-3.42 1.964l-14.82 40.59.163.49c1.303.262.76 2.62.326 3.765l1.954-1.964 1.14-2.292zm0 0l.814 6.22c.435.437 1.043 1.702 0 3.273l-4.07.654.162-3.109 2.443-.327-.489-4.419 1.14-2.292zm0 0c-.271-.654-.749-2.193-.488-3.11l.488 3.11zm-1.14 2.292c.055-.546.065-1.931-.325-3.11l.325 3.11zm.652-5.401c.325-1.146-.489-1.473-.815-1.146l-.162-.163c.27-.219.879-.393 1.14.654l-.163.655zM31.717 54.783v-5.892l8.794-17.348c1.194-1.473 4.983-4.452 10.585-4.583 5.602-.13 16.014-1.036 20.519-1.473 4.69.131 6.405 1.364 6.677 1.964.543 1.582.553 4.877-3.746 5.401-4.397 1.964-3.908 2.128-6.188 1.964-1.824-.13-1.954-.055-1.791 0-4.614.927-14.396 3.044-16.61 4.092-2.77 1.309-8.632 3.928-18.24 15.875zm27.359 21.604c0-.654.846-1.571 1.628-.654.28.327.619 1.112-.163 2.946l-.162 2.946c.162.763.325 2.487-.326 3.272-.652.786-1.792 0-2.117-.981-.163-.492-.163-1.604.488-2.128.652-.524.706-2.291.652-3.11v-2.29zm31.267-42.553l.651.164-3.908 10.474c-.326 1.692-1.335 4.517-2.769 2.292l-.651-.982c-.325.545-1.01 1.44-1.14.654-.13-.785.489-1.2.815-1.309l7.002-11.293z" stroke="#000" stroke-width=".6"/><path fill-rule="evenodd" clip-rule="evenodd" d="M41.325 36.29l.326-.82c.074-.074.144-.14.21-.203.37-.352.604-.575.604-1.27 0-.818-.651-1.145-1.14-1.145-.814 0-1.303.655-1.303 1.146 0 .654.326.982.489 1.145l-.326 1.146h1.14zM4.36 84.523l13.68 2.946h9.607c.334-1.12.62-2.48.762-3.928l14.383 2.127c.108 0 .651.459 1.954 2.292 1.303 1.833 2.497 1.637 2.931 1.309l17.425-.818 2.606-3.437H61.52l-.815-.281-.163-.655-.65 1.146-.978-.163-.814-.655-.326-1.146.326-1.145.651-.866c.016-.244.052-.593.094-1.003v-.003c.099-.963.232-2.265.232-3.366 0-1.571.923-1.582 1.303-1.473l.651.982v1.637l.326-1.637-.163-.49-.814-.82.814-2.5-.163-.165-1.629-1.636-1.302-5.074h-1.954l.162 4.91h-.488l-1.14-4.91H52.4v4.91h-.489l-1.302-4.91h-1.955v4.91h-.651l-.977-4.91h-2.28v4.91h-.651l-1.14-4.91h-.489v-.444H39.86l.326 3.764h-2.371l-1.212-3.32H33.02v-1.426l-.326-3.11-.977-.327V49.99l-.651-4.746v-3.273c0-.786-2.172-.873-3.257-.819l-1.955 1.31h-3.256c.26-2.488-2.063-2.237-3.258-1.8l-3.582 2.29-1.954.492c-.435.873-1.336 2.651-1.466 2.782-.13.13-.271 2.891-.326 4.255-.597.11-2.345.459-4.56.982-2.214.524-2.334 3.601-2.117 5.074-1.563.524-2.822 2.728-3.257 3.764v6.71l-.488.492v2.127l.814.982h16.774v.819c-10.553-.131-12.105-.055-11.562 0-4.072 0-9.283 8.674-3.257 13.093zm20.356-38.579c1.41-.709 4.722-.327 5.048.655.326 2.081.276 3.764 0 5.074-.163.771-.597 1.262-.814 1.426h-2.932c.163-1.2.13-3.764-1.302-4.419v-2.736zm-2.932 1.1v5.891H19.83v-5.892h1.954zm-6.188 0h2.606v5.4l-2.769-.49.163-4.91zm-1.14 0h-.651l-.163 4.91h.651l.163-4.91z" fill="#000"/><path d="M93.437 34.489l-.651-.164-5.049 8.838 1.791 2.291 3.91-10.965zM70.638 52.656c.489-.273 1.4-.524 1.14.654l-6.025 9.33c.381.217.98.687.977.818 0 .916.097.905-.163.818-.26-.087-.428-.207-.619-.327-.032.654.033 1.898-1.01 1.636-1.042-.262-.543-1.414-.163-1.964-.122-.001-.396-.01-.488 0l.326-.982.651-.163 5.374-9.82z" fill="#D39107"/><path d="M65.753 62.64l6.025-9.33c.26-1.178-.651-.927-1.14-.654l-5.374 9.82.489.163zm0 0l-.489-.165.489.164zm0 0c.381.217.98.687.977.818 0 .916.097.905-.163.818-.26-.087-.428-.207-.619-.328l-.195-1.309zm-.489-.165l-.651.164-.326.982c.092-.01.366-.002.488 0l.49-1.146zm.684 1.473c-.032.655.033 1.899-1.01 1.637-1.042-.262-.543-1.414-.163-1.964l1.173.327zm0 0c-.4-.254-.768-.321-1.172-.327l1.172.327zm26.838-29.623l.651.164-3.909 10.965-1.79-2.291 5.048-8.838z" stroke="#000" stroke-width=".6"/><path d="M72.918 20.577c-.652.164-1.14-.727 0-.982 4.397-.982 13.419-3.306 14.982-3.437.687-.058.814.327.489.654l-15.471 3.765z" fill="#fff"/><path d="M45.397 28.105c-1.564.524-3.475 2.401-4.234 3.274 1.563-3.143 5.32-5.02 7.002-5.565l2.28-1.636 2.931 1.636 10.26-.327v-2.455l5.863-.818v-.328h.814v1.146l-4.723.655.163 2.455c1.357-.055 3.908-.099 3.257.163-.815.328-12.051.491-17.1.655-5.048.163-4.56.49-6.513 1.145z" fill="#D39107"/><path d="M48.165 25.814l2.117.164m-2.117-.164l2.28-1.636 2.931 1.636 10.26-.327v-2.455l5.863-.818v-.328h.814v1.146l-4.723.655.163 2.455c1.357-.055 3.908-.099 3.257.163-.815.328-12.051.491-17.1.655-5.048.163-4.56.49-6.513 1.145-1.564.524-3.475 2.401-4.234 3.274 1.563-3.143 5.32-5.02 7.002-5.565z" stroke="#000" stroke-width=".6"/><path d="M18.922 87.833h6.77a.363.363 0 000-.727h-.003a1.734 1.734 0 01-.102-.004 8.564 8.564 0 00-.106-.004l-.202-.01a.364.364 0 00-.217-.635l-4.825-.296.043-.124h5.412a.362.362 0 00.361-.353.362.362 0 00-.34-.373l-4.361-.256h4.34a.363.363 0 00.029-.725l-3.213-.257h3.672a.362.362 0 00.362-.353.362.362 0 00-.34-.373l-5.259-.305c.022-.2.038-.403.05-.606h5.513a.363.363 0 00.02-.726l-4.577-.256h4.72a.363.363 0 00.02-.726l-5.732-.31-.01-.12 5.894-.154a.363.363 0 00.008-.726l-6.06-.297a11.3 11.3 0 00-.209-.968l5.133-.3a.363.363 0 00-.022-.726l-3.158.007 2.036-.099a.363.363 0 00.344-.367.362.362 0 00-.352-.359l-3.543-.092 2.257-.164a.363.363 0 00-.032-.726l-4.653.083c-1.836-1.434-5.406-3.565-9.662-3.684a.363.363 0 00-.09.718c1.656.375 4.13 1.21 6.278 2.282 1.074.535 2.053 1.123 2.805 1.734.76.618 1.242 1.223 1.397 1.782.786 2.843.64 5.049-.3 8.07-.16.181-.322.303-.511.386-.211.093-.478.148-.85.159-.763.023-1.864-.133-3.637-.397a.364.364 0 00-.415.359v.164c0 .174.123.323.293.357.711.137 1.81.327 2.8.45a16 16 0 001.357.119c.194.007.373.005.526-.008.11-.01.231-.026.34-.064zm18.87-40.725a.36.36 0 00.461-.244l2.931-10.311a.361.361 0 00-.348-.463h-.325c-.159 0-.3.104-.346.256l-3.094 10.148a.364.364 0 00.232.45l.488.164zm8.89-.623c-.063.19.04.396.229.46l.488.163a.36.36 0 00.463-.249l.977-3.6a.364.364 0 00-.167-.41.36.36 0 00-.437.057l-.489.491a.362.362 0 00-.087.142l-.977 2.946z" fill="#fff" stroke="#000" stroke-width=".6" stroke-linejoin="round"/><path d="M11.198 61.003l-8.956 1.146c-.522-5.5 5.7-6.438 9.12-6.22l-.164 4.255c2.317.164 6.905 3.961 7.166 7.366h-7.166l-7.654.818 6.84-.293.814-.013 20.52-.349c.325.273.781.982 0 1.637l-20.52.49H2.242c-.435-.436-1.043-1.57 0-2.618l8.956-.49v-5.729z" fill="#FFCA40"/><path d="M11.198 69.84l20.52-.49c.781-.655.325-1.364 0-1.637l-21.334.362m.814-7.072l-8.956 1.146c-.522-5.5 5.7-6.438 9.12-6.22l-.164 4.255v.819zm0 0v-.819.819zm0 0v5.728-5.728zm0 5.728l-8.956.491c-1.043 1.048-.435 2.182 0 2.619h8.956v-3.11zm0 0v.819-.819zm0 .819l-7.654.818 6.84-.293.814-.525zm0 0h7.166c-.26-3.405-4.849-7.202-7.166-7.366v7.366zm0 2.29v-1.778l-.814.013.814 1.766z" stroke="#000"/><path d="M66.376 79.049l1.954-2.83.159 1.198.142 1.073.53-.942 4.886-8.674.086-.152-.065-.162-.269-.675 1.343-3 .679-.272.128-.051.061-.124 6.84-13.748.262-.526h-1.334a17.034 17.034 0 00-1.233-.384c1.78.326 2.865-.209 3.236-.656l.004-.005.004-.005 1.003-1.296.595.12.094.019.091-.03.489-.164.142-.048.067-.134.814-1.637.012-.023.007-.025.637-1.918 1.843 1.729-3.739 8.455-.826.276-.12.04-.07.108-5.374 8.347-.057.09v1.31l-1.371.413-.342.103.098.345.285 1-1.484 2.684-.995.286-.139.04-.073.123-5.048 8.51-.007.012-.006.012-1.303 2.619-.034.068-.003.076-.148 2.969-.595.075v-3.39h-2.606v-1.073h.642l.108-.156zm6.07-53.116l.04-.115c.097 0 .198 0 .304.004-.765 2.188-2.064 6.58-2.187 9.798-.081 2.125-.086 3.781.38 5.362.47 1.59 1.407 3.072 3.14 4.887 1.314 1.377 2.566 2.303 3.625 2.904a11.765 11.765 0 01-.328-.164c-1.75-.909-3.738-2.498-5.66-5.637l-.005-.01-.008-.01c-.668-.947-1.062-2.217-1.241-3.681-.18-1.461-.143-3.09.028-4.733.341-3.284 1.213-6.58 1.912-8.605zm-1.214 0l-.03.03c-.303.287-.646.71-1.018 1.302-.742 1.185-1.615 3.072-2.497 5.972l-.002.008-.002.008C65.947 40.096 69.513 45.926 71.52 48l.01.01.01.01c.428.376.651.97.74 1.613a5.3 5.3 0 01-.042 1.643l-.007.035v.036c0 .133-.043.34-.16.504-.104.145-.28.278-.618.278-.183 0-.256-.038-.278-.055-.014-.01-.026-.023-.032-.064a.547.547 0 01.025-.223c.017-.057.038-.114.062-.166.418-.216.707-.495.872-.83a1.68 1.68 0 00.116-1.102c-.144-.688-.62-1.328-.996-1.706-3.059-3.182-7.466-12.021-.498-21.89.084-.042.25-.104.508-.159z" fill="#000" stroke="#000" stroke-width=".4"/><path fill-rule="evenodd" clip-rule="evenodd" d="M40.79 34.817c.236.03.474-.308.532-.756.057-.449-.087-.837-.323-.867-.236-.031-.474.307-.531.755-.058.449.086.837.322.868zm-19.82 9c.63 0 1.14-.495 1.14-1.309s-.51-1.31-1.14-1.31c-.63 0-1.14.496-1.14 1.31 0 .814.51 1.31 1.14 1.31zm-9.608 16.157c4.82 1.047 6.785 5.019 7.165 6.873l.163.492 12.376.163.815-.654-.489-18.986-.326-3.273h-3.094c0-1.44-1.303-2.018-1.954-2.128h-3.42c0 2.292-3.42 1.8-3.42 1.146-.8-2.41-2.698-1.35-4.154-.535l-.08.044c-1.563-.524-2.388.764-2.605 1.473l-.977 15.385zm41.852 20.504c-.13 3.405-5.374 9.053-6.351 8.511-2.28-1.263-3.094-2.829-3.42-4.302-.267-1.21-.651-3.6-.977-7.364-1.14-3.765-1.249-9.166-.977-11.457 0 1.833.434 3.818.651 4.582 1.433 4.714 5.32 5.066 7.166 4.63 1.357.381 4.038 1.996 3.908 5.4zm-48.53.936v-2.455l12.54.818v3.273l-12.54-1.636zm45.273 6.22l-1.628 1.355 16.61-.654.977-1.31-15.959.608zm-3.908-16.695h-.977l.162-4.91.815 4.91zm2.931-4.91l.814 4.91h-.814v-4.91zm4.56 4.91h-.815v-4.91l.815 4.91zm2.931 0h.814l-.977-5.073.163 5.073zM15.433 44.426c.923-.819 2.801-1.965 2.931 0 .13 1.963.272 13.693.326 19.312-.721-1.146-2.48-3.6-3.745-4.255l.488-15.057zm-.651 0c-.543-.11-1.629-.033-1.629 1.145s-.108 9.002-.163 12.766l1.303 1.146.489-15.057zm15.308 1.8c-.13-1.31-4.832-1.528-7.166-1.473-2.866 0-3.474.654-3.42.982.055 5.455.163 16.76.163 18.33 0 1.571 1.086 2.4 1.629 2.619h7.817c1.172 0 1.682-.764 1.79-1.146L30.416 51.3c-.054-1.145-.195-3.764-.325-5.073zm.814-3.227c0 .723-.51 1.146-1.14 1.146-.63 0-1.14-.423-1.14-1.146 0-.723.51-1.146 1.14-1.146.63 0 1.14.423 1.14 1.146z" fill="#9C9B9B"/><path fill-rule="evenodd" clip-rule="evenodd" d="M69.987 20.25c-.815.327-1.922.949.162.818 2.215-.786.815-.873-.162-.818zM57.12 23.36c-1.465.545-3.517 1.44 0 .654a638.838 638.838 0 0010.423-2.455c.923-.491 2.052-1.31-.814-.655-2.867.655-7.6 1.91-9.609 2.455zM18.69 70.284v-.491l19.054.163v.655l-19.054-.327zm16.774.327H21.132v.982h14.005l.326-.982zm-11.237 1.473H29.6v1.964c.109.054.358.131.489 0 .081-.082.081-.573.081-1.043s0-.92.081-.92h2.932v1.963h.651v-1.964h1.629v1.964h5.862v.819h-13.68v-.492H26.18l-1.954-2.29zm18.076 8.183h-13.19v1.146l13.19.819v-1.965zm-13.028 2.455c3.257.818 10.423 2.272 13.028 2.01v.492c-2.334-.219-8.207-.95-13.028-2.128v-.374zM53.54 80.76c.13-2.489-1.249-4.201-1.954-4.747l-.163-.163h7.654c-.13.785-.272 3.6-.326 4.91H53.54zm-2.43 5.427l.003-.003.002-.001c.174-.188.34-.367.47-.514l15.634-.28-1.14 1.309-15.96.655c0-.096.52-.657.992-1.166zM3.103 82.54c-.612-2.07-1.494-5.047 1.256-8.163-1.466 1.356-3.582 3.975-1.14 8.558-.036-.128-.075-.26-.116-.395zm81.54-34.303l.49.328L76.99 64.44l-.489-.327 8.143-15.876zm1.141.819l-.489-.328-7.98 15.876.327.164 8.142-15.712zm1.792-1.637l.488.164-.163.654h-.325v-.818zM76.5 64.93h-.488l-1.466 2.455v.491h.489l1.466-2.455v-.49zm.326.655l.326-.164v.491l-1.303 2.455h-.325v-.49l1.302-2.292zm-2.117 3.273l-.488.328-5.863 10.638v.49h.489l6.025-10.801-.163-.655zm-53.088-26.35c0 .509-.292.819-.652.819-.36 0-.651-.31-.651-.819 0-.508.291-.818.651-.818.36 0 .652.31.652.818zm8.158 1.211c.333 0 .603-.279.603-.736 0-.458-.27-.737-.603-.737-.333 0-.602.28-.602.737 0 .457.27.736.602.736zm48.025-14.631c0 .632-.365 1.145-.815 1.145-.449 0-.814-.513-.814-1.145 0-.633.365-1.146.814-1.146.45 0 .815.513.815 1.146zm7.328 17.184c.27 0 .488-.366.488-.818 0-.452-.218-.818-.488-.818s-.489.366-.489.818c0 .452.22.818.49.818z" fill="#5B5B5B"/><path d="M33.203 65.689l4.543-15.327.034-.023.489-.327.127-.086.028-.151.325-1.8.012-.066-.012-.065c-.073-.407-.216-.727-.426-.96a1.26 1.26 0 00-.74-.405c-.508-.086-1.021.115-1.33.3l-.122.074-.039.138-.651 2.291-.039.136.063.127.13.26-3.738 13.39-.013.049v2.705h1.283l.076-.26zm6.962-.538l-.144.47h2.055l.081-.25 4.706-14.515.439-.147.159-.053.062-.157.977-2.455.05-.123-.042-.127c-.147-.441-.36-.77-.633-.993a1.485 1.485 0 00-.886-.335c-.585-.027-1.146.25-1.48.495l-.086.063-.038.1-.815 2.128-.024.063v.999l.15.041-4.53 14.796z" fill="#5B5B5B" stroke="#000"/><path fill-rule="evenodd" clip-rule="evenodd" d="M62.822 72.132c.18 0 .325-.293.325-.655 0-.362-.145-.655-.325-.655-.18 0-.326.293-.326.655 0 .362.146.655.326.655zm1.465 11.129c.27 0 .489-.44.489-.982 0-.543-.219-.982-.489-.982s-.488.44-.488.982.218.982.488.982zm-4.397 0c0 .542-.218.982-.488.982s-.489-.44-.489-.982.219-.982.489-.982.488.44.488.982zm.163-5.892c.27 0 .489-.293.489-.655 0-.36-.22-.654-.489-.654-.27 0-.488.293-.488.654 0 .362.218.655.488.655z" fill="#000"/><path d="M106.818 32.396h3.531l1.923 7.749 1.104 5.314.835-5.282 1.624-7.781h3.705L115.741 49.3a16.375 16.375 0 01-.6 2.214c-.22.6-.509 1.16-.867 1.676a3.96 3.96 0 01-1.292 1.187c-.505.284-1.125.495-1.86.632-.726.127-1.577.158-2.554.095v-3.178c.967.063 1.697-.032 2.191-.285.494-.253.809-.77.946-1.55l.031-.206-4.918-17.49zm14.187 22.678V32.395h4.935l2.616 16.098 2.428-16.099h4.934v22.678h-3.357V38.817l-2.46 16.258h-3.357l-2.649-16.037v16.037h-3.09zm17.342-9.71v-3.241h6.447v3.242h-6.447zm8.859 9.71v-2.783c0-.897.126-1.74.378-2.53.263-.802.599-1.498 1.009-2.088.42-.601.878-1.181 1.371-1.74l1.498-1.692c.505-.559.962-1.133 1.372-1.724a7.56 7.56 0 001.009-2.04c.262-.78.394-1.613.394-2.498 0-.97-.153-1.645-.458-2.024-.304-.38-.762-.57-1.371-.57-1.23 0-1.845.743-1.845 2.23v2.435h-3.357v-2.214c0-1.823.452-3.226 1.355-4.206.904-.991 2.218-1.486 3.941-1.486 1.724 0 3.038.495 3.942 1.486.903.98 1.355 2.383 1.355 4.206 0 .97-.131 1.903-.394 2.8a9.822 9.822 0 01-1.024 2.356 17.8 17.8 0 01-1.372 1.976 31.29 31.29 0 01-1.498 1.756 43.083 43.083 0 00-1.387 1.55 8.056 8.056 0 00-1.009 1.534c-.263.527-.394 1.038-.394 1.533 0 .222.011.386.032.49h6.715v3.243h-10.262zm12.501-5.441V37.836c0-1.813.468-3.215 1.403-4.206.936-.991 2.27-1.486 4.004-1.486 1.734 0 3.064.495 3.989 1.486.935.991 1.403 2.393 1.403 4.206v11.797c0 1.814-.468 3.216-1.403 4.207-.925.992-2.255 1.487-3.989 1.487s-3.068-.495-4.004-1.487c-.935-.99-1.403-2.393-1.403-4.207zm3.563.222c0 1.497.615 2.246 1.844 2.246 1.219 0 1.829-.749 1.829-2.246v-12.24c0-1.487-.61-2.23-1.829-2.23-1.229 0-1.844.743-1.844 2.23v12.24zm9.538 5.219v-2.783c0-.897.126-1.74.378-2.53.263-.802.599-1.498 1.009-2.088.421-.601.878-1.181 1.371-1.74.505-.57 1.005-1.133 1.498-1.692.505-.559.962-1.133 1.372-1.724.42-.59.757-1.27 1.009-2.04.263-.78.394-1.613.394-2.498 0-.97-.152-1.645-.457-2.024-.305-.38-.762-.57-1.371-.57-1.23 0-1.845.743-1.845 2.23v2.435h-3.358v-2.214c0-1.823.452-3.226 1.356-4.206.903-.991 2.217-1.486 3.941-1.486 1.723 0 3.037.495 3.941 1.486.904.98 1.356 2.383 1.356 4.206a9.93 9.93 0 01-.394 2.8 9.864 9.864 0 01-1.025 2.356c-.41.685-.867 1.344-1.371 1.976a32.15 32.15 0 01-1.498 1.756 42.21 42.21 0 00-1.388 1.55 8.105 8.105 0 00-1.009 1.534c-.262.527-.393 1.038-.393 1.533 0 .222.01.386.031.49h6.715v3.243h-10.262zm12.5-5.441V37.836c0-1.813.468-3.215 1.403-4.206.935-.991 2.27-1.486 4.004-1.486 1.735 0 3.064.495 3.989 1.486.935.991 1.403 2.393 1.403 4.206v11.797c0 1.814-.468 3.216-1.403 4.207-.925.992-2.254 1.487-3.989 1.487-1.734 0-3.069-.495-4.004-1.487-.935-.99-1.403-2.393-1.403-4.207zm3.563.222c0 1.497.615 2.246 1.844 2.246 1.219 0 1.829-.749 1.829-2.246v-12.24c0-1.487-.61-2.23-1.829-2.23-1.229 0-1.844.743-1.844 2.23v12.24zm-79.118 14.013a5.907 5.907 0 01-.496.91c-.162.239-.356.42-.579.542-.224.118-.508.176-.854.176a2.6 2.6 0 01-.404-.03 1.965 1.965 0 01-.335-.085v-.68c.101.045.211.084.327.114.117.026.239.038.366.038.285 0 .509-.06.671-.183.168-.122.323-.339.465-.65l-2.096-4.06h.755l1.517 3.005a5.473 5.473 0 01.182.42h.031a6.87 6.87 0 01.076-.198l.076-.199 1.312-3.028h.724l-1.738 3.908zm2.477 1.552v-5.46h4.086v5.46h-.678v-4.856h-2.722v4.856h-.686zm7.017-5.46c.712 0 1.23.14 1.555.42.326.28.488.676.488 1.186 0 .3-.068.583-.206.849-.132.26-.358.471-.678.635-.315.162-.744.244-1.288.244h-.625v2.126h-.686v-5.46h1.44zm-.061.589h-.693v2.157h.549c.518 0 .904-.085 1.158-.253.254-.168.381-.454.381-.856 0-.352-.111-.615-.335-.788-.224-.173-.577-.26-1.06-.26zm6.271 4.871l-.656-1.69h-2.157l-.648 1.69h-.694l2.127-5.483h.618l2.119 5.484h-.709zm-1.471-3.953a15.264 15.264 0 01-.183-.551 5.373 5.373 0 00-.076-.267 7.695 7.695 0 01-.237.818l-.617 1.651h1.723l-.61-1.65zm4.48-1.507c.681 0 1.194.102 1.54.306.351.198.526.548.526 1.048 0 .32-.089.588-.267.803-.178.208-.434.344-.77.405v.038c.229.035.435.102.618.199.188.097.335.234.442.412.107.18.16.41.16.697 0 .494-.17.876-.511 1.147-.335.27-.795.405-1.38.405h-1.913v-5.46h1.555zm.137 2.325c.468 0 .788-.075.961-.222.173-.153.259-.377.259-.673 0-.301-.107-.515-.32-.643-.209-.132-.544-.198-1.006-.198h-.9v1.736h1.006zm-1.006.573v1.98h1.098c.483 0 .818-.094 1.006-.282.188-.19.282-.436.282-.742a.87.87 0 00-.297-.688c-.193-.179-.541-.268-1.045-.268h-1.044zm8.19 2.562h-.686v-4.856h-1.723a93.359 93.359 0 01-.32 2.378c-.056.377-.112.699-.168.964a4.74 4.74 0 01-.244.872c-.096.24-.226.42-.388.542-.158.123-.366.184-.626.184a1.24 1.24 0 01-.266-.03 1.24 1.24 0 01-.229-.062v-.573c.056.025.119.048.191.069.071.014.147.022.228.022a.413.413 0 00.358-.183 1.45 1.45 0 00.214-.467c.051-.188.094-.374.13-.558.04-.194.088-.476.144-.848.061-.378.125-.816.191-1.316.071-.5.142-1.032.213-1.598h2.981v5.46zm4.521 0h-3.042v-5.46h3.042v.604h-2.356v1.705h2.219v.597h-2.219v1.95h2.356v.604zm5.356 0h-.686v-2.546h-2.79v2.546h-.686v-5.46h.686v2.31h2.79v-2.31h.686v5.46zm1.496-5.46h.64v2.997a23.63 23.63 0 01-.03 1.14 4.51 4.51 0 01-.023.382h.03l2.996-4.519h.762v5.46h-.64v-2.967c0-.19.003-.39.008-.605a65.335 65.335 0 01.053-.97h-.03l-3.004 4.542h-.762v-5.46zm8.884 5.46h-3.041v-5.46h3.041v.604h-2.355v1.705h2.218v.597h-2.218v1.95h2.355v.604zm6.135 0l-1.792-4.787h-.03c.015.158.028.372.038.642.01.265.015.543.015.834v3.311h-.633v-5.46h1.014l1.677 4.474h.031l1.707-4.474h1.007v5.46h-.679v-3.357c0-.265.005-.528.015-.788l.039-.635h-.031l-1.814 4.78h-.564zm7.556 0h-3.042v-5.46h3.042v.604h-2.356v1.705h2.218v.597h-2.218v1.95h2.356v.604zm4.891 0h-.778l-1.441-2.37-1.463 2.37h-.724l1.806-2.845-1.692-2.615h.762l1.334 2.141 1.342-2.141h.724l-1.685 2.6 1.815 2.86zm4.185 0l-.656-1.69h-2.157l-.648 1.69h-.694l2.127-5.483h.617l2.12 5.484h-.709zm-1.472-3.953a11.74 11.74 0 01-.076-.221l-.107-.33a3.81 3.81 0 00-.076-.267 6.456 6.456 0 01-.122.466c-.046.148-.084.265-.114.352l-.618 1.651h1.723l-.61-1.65zm7.087 3.953h-.686v-2.546h-2.79v2.546h-.686v-5.46h.686v2.31h2.79v-2.31h.686v5.46zm1.495-5.46h.641v2.997a24.01 24.01 0 01-.054 1.522h.031l2.996-4.519h.762v5.46h-.64v-2.967c0-.19.002-.39.007-.605l.031-.588.022-.383h-.03l-3.003 4.543h-.763v-5.46zm9.061 1.277c0 .371-.116.668-.35.887-.234.214-.546.35-.937.412v.031c.457.061.805.204 1.043.429.24.224.359.517.359.878 0 .48-.183.87-.549 1.17-.366.301-.914.452-1.647.452-.294 0-.576-.023-.845-.069a2.58 2.58 0 01-.74-.229v-.628a3.774 3.774 0 001.578.36c.488 0 .856-.092 1.105-.275.254-.184.382-.444.382-.78 0-.347-.148-.6-.443-.758-.294-.158-.706-.236-1.234-.236h-.778v-.574h.739c.539 0 .94-.09 1.204-.268.27-.183.404-.428.404-.733 0-.276-.101-.488-.304-.635-.203-.148-.467-.222-.793-.222-.34 0-.625.043-.854.13a3.691 3.691 0 00-.655.336l-.328-.466c.214-.159.475-.291.785-.398a3.156 3.156 0 011.059-.168c.59 0 1.037.128 1.342.383.305.255.457.578.457.97zm4.68 4.183l-.655-1.69h-2.158l-.648 1.69h-.693l2.126-5.483h.618l2.119 5.484h-.709zm-1.471-3.953a7.17 7.17 0 01-.076-.221c-.036-.107-.071-.217-.107-.33a5.373 5.373 0 00-.076-.267 7.695 7.695 0 01-.237.818l-.617 1.651h1.723l-.61-1.65zm7.674 3.349v2.041h-.656V65.42h-4.094v-5.46h.686v4.848h2.722V59.96h.678v4.856h.664zm.909-4.856h.64v2.997c0 .169-.002.358-.008.566-.004.21-.012.4-.022.574a4.51 4.51 0 01-.023.382h.03l2.996-4.519h.762v5.46h-.64v-2.967c0-.19.003-.39.007-.605l.031-.588.023-.383h-.03l-3.004 4.543h-.762v-5.46zm5.851 0h.64v2.997a24.01 24.01 0 01-.053 1.522h.03l2.996-4.519H217v5.46h-.64v-2.967c0-.19.002-.39.007-.605a65.335 65.335 0 01.054-.97h-.031l-3.003 4.542h-.762v-5.46z" fill="#fff"/></svg>