<svg width="169" height="70" fill="none" xmlns="http://www.w3.org/2000/svg"><path fill-rule="evenodd" clip-rule="evenodd" d="M60.374 50.04l-.2.747-.434-.746v-1.762l-1.054-1.12V46.04l-.157-.47-.03 5.217-4.143 5.643-15.185-.492H27.864s-8.045-2.924-8.79-2.571c-.207-.024-.403-.05-.594-.076h-.002c-1.376-.183-2.524-.336-5.944.748H6.446L7.675 18.13l1.556-.606V21.3h1.03v-4.524l.853-.213V21.3h1.42v2.85h3.374v3.882h.71v-14.14l5.932-2.6V21.3l1.918 1.71v-2.6l5.824-5.272v10.614h-2.415v.428h4.05V5.592h1.1V3.598h.852V0h.96v3.598h1.136v1.994h.959v1.176h1.634v25.219h.603V18.879h5.399v11.149h-2.202v.356h4.084V17.81l2.202 1.817V13.18h.71v7.052l1.847 1.425v4.524h1.812v2.6h.568l-.249-13.82 4.44 2.208v4.239h.781v-3.919l.888.321v3.598h.923v-3.242l1.705.926-1.705 30.949zm5.855-33.717c-1.396-.588-2.604-.146-2.93-.027a.477.477 0 01-.082.027l1.486 1.09v.21l-.352.078-2.372-1.378v-2.674l-1.669-1.555v3.581l-.834-.627v-1.464h-.99v1.137l-.587-.287v-5.57h-1.85v-2.85h-.9v2.85h-1.668v3.305L42.442 6.768c-1.918.539-1.18 1.196-.57 1.457v2.588h-.687c.003.484.019 1.549.056 1.943.037.394.77.648 1.13.725v1.255c.972 0 1.131.613 1.045.992-.393 1.271-1.35.707-1.545.189-.09-.238-.146-.202-.186-.158-.104.394.113.759.264.889.435.373 1.397.433 1.753-.444.334-1.114-.054-1.468-.83-1.914v-1.478h.362v.92h.963a75.437 75.437 0 010-1.562c.008-.676-.397-1.093-.6-1.217V9.05l19.536 9.562c-.084.865.658 2.222 2.29 2.25 1.305.022 1.977-1.348 2.15-2.036.065-.66-.069-1.966-1.344-2.503zm-62.645-.957c-1.275.537-1.408 1.843-1.344 2.503.173.688.846 2.058 2.15 2.035 1.892-.098 2.315-1.54 2.29-2.25l19.536-9.561v1.903c-.203.123-.608.54-.6 1.217a73.3 73.3 0 010 1.562h.964v-.92h.361v1.477c-.776.447-1.164.8-.83 1.915.356.876 1.319.817 1.753.443.151-.13.368-.495.264-.889-.04-.043-.097-.08-.186.158-.195.518-1.151 1.083-1.545-.188-.086-.38.073-.992 1.045-.992v-1.255c.361-.078 1.093-.331 1.13-.725.037-.395.053-1.46.056-1.943h-.686V7.267c.609-.26 1.347-.918-.571-1.457L21.66 8.7V6.92l-.827-1.11h-.754V1.42h-1.005v4.39h-.892l-.64 1.457v3.205l-5.63 3.004-.585.287v-1.137h-.991v1.464l-.834.628v-3.582l-1.668 1.556v2.674l-2.372 1.378-.352-.079v-.209l1.335-1.03c-1.158-.513-2.39-.254-2.862-.06zM26.53 7.903l.896-.365h.098l-.05 2.32h-.944V7.902zm16.6 1.007l-.896-.365h-.098l.049 2.32h.945V8.91z" fill="#727070"/><path d="M39.667 53.811l-10.4.255-5.834-2.8.761-9.548 6.849-9.802c1.86-1.103 5.656-3.335 5.96-3.437.305-.101 2.664-1.4 3.806-2.036l14.204.509 4.44-6.62 1.902.255c2.536 1.12 1.48 3.183.634 4.073l-5.834 2.42.76.127-11.794 3.055c-6.697.101-12.176 8.444-14.078 12.602h2.41c-.085-.127.126-.077 1.648 1.146 1.522 1.221 1.649 3.224 1.522 4.073h2.03l.253 1.782c1.116.204.972 2.716.761 3.946z" fill="#BE8000"/><path d="M55.013 26.952l4.44-6.62 1.902.255c2.536 1.12 1.48 3.183.634 4.073l-5.834 2.42m-1.142-.128l-14.204-.51c-1.142.637-3.501 1.936-3.805 2.037-.305.102-4.101 2.334-5.961 3.437l-6.849 9.802-.76 9.547 5.833 2.8 10.4-.254c.211-1.23.355-3.742-.76-3.946l-.255-1.782h-2.029c.127-.849 0-2.852-1.522-4.073-1.522-1.223-1.733-1.273-1.648-1.146h-2.41c1.902-4.158 7.381-12.5 14.078-12.602l11.795-3.056-.761-.127-1.142-.127zm0 0l1.142.127-1.142-.127z" stroke="#000"/><path d="M33.833 24.915c.634.382 1.522 1.655 0 3.692v-3.692zm-2.68 22.19l-1.524 3.211 1.315-3.383.019.01a.59.59 0 01.19.162zm26.004-20.167c.607-.27 1.32-.616 2.03-1.004-.56.47-.977.945-1.238 1.31l-.792-.306zm5.294-2.656a7.246 7.246 0 00-1.32.436c.251-.186.485-.374.694-.564.454-.416.82-.867.943-1.33a1.452 1.452 0 00-.189-1.214 2.24 2.24 0 00-.67-.631c.359.188.603.41.765.642.2.288.288.61.298.941.019.63-.245 1.28-.521 1.72zm-.907-3.903l-.287.266a5.793 5.793 0 00-.432-.157h.415l.085-.113.76-1.019.339-.452h-3.607l-.026.255-.075.764h-.324l.2.2-.253-.036v-.927h-1.696l.292.44.135.203-2.49.178 1.994-1.456.116-.084v-1.114l-.328.055-1.432.239-.425-.213-.09-.046-.1.023-10.368 2.411h-2.05l-1.965-1.11-.065-.035h-.552a3.544 3.544 0 00-.406-.524 1.256 1.256 0 00-.488-.336.651.651 0 00-.522.037.925.925 0 00-.345.346c-.165.27-.27.645-.336 1.017a7.777 7.777 0 00-.107.964l-.166.084a68.835 68.835 0 01.206-1.607c.211-.462.428-.729.624-.874a.715.715 0 01.547-.152c.373.052.75.387.99.726l.07.1.12.017.887.128.087.012.079-.04c.46-.23 1.052-.343 1.622-.384a7.245 7.245 0 011.385.03l.057.008.056-.016c3.334-.932 10.329-2.903 11.555-3.314.58-.194.915-.177 1.09-.12.166.054.19.142.192.153l.049.295.29-.066 11.795-2.673.17-.038.042-.169a.852.852 0 01.22-.375c.076-.078.154-.136.212-.173.192.01.28.058.318.093.037.033.066.088.065.194-.002.212-.122.5-.265.731l-2.813 1.228-9.739 2.158-.442.098.283.355c.158.198.377.526.519.858.07.165.117.32.132.452.014.133-.005.221-.039.277l-.28.47.543-.043a4387.364 4387.364 0 016.492-.494l.029-.002c-.351.286-.659.548-.9.77l-1.648 1.528zm-16.23 41.126l7.839-2.86 1.263 6.34h-3.774l.647.506.558.435-3.046.204-2.681-.234-.806-4.39zM26.758 46.711h2.053a.157.157 0 01.043.044.108.108 0 01.014.061.297.297 0 01-.02.093h-2.09v-.198z" fill="#000" stroke="#000"/><path d="M69.543 14.013a4.03 4.03 0 00-.325.082 1.01 1.01 0 01.325-.082c.47-.099 1.13-.16 1.45.082.043-.934-.05-2.928-.76-3.437.295.042 1.167.153 2.283.255 1.116.101 1.31 2.588 1.268 3.818.338.128.99.739.887 2.164-.101 1.426-.634 7.299-.887 10.057l-.254-.056-1.649 2.856.888-3.023-.507-.111-4.059 6.953.761 1.019L52.35 59.922c-.406 1.425-1.268 1.527-1.649 1.4v1.4h2.03v2.546l-1.269.636h-3.044c3.551-.61 2.748-2.291 1.903-3.055l-.38-4.71 19.784-32.078c.806-4.203 1.826-12.177-.182-12.048z" fill="#C18405"/><path d="M72.77 26.729l.76.167m-3.805-.835c.846-4.413 1.928-12.984-.507-11.966.422-.127 1.37-.306 1.776 0 .042-.934-.051-2.928-.762-3.437a52.12 52.12 0 002.284.255c1.116.101 1.31 2.588 1.268 3.818.338.128.99.739.887 2.164-.101 1.426-.634 7.299-.887 10.057l-.254-.056-3.805-.835zm0 0L49.94 58.139l.38 4.71c.846.764 1.65 2.444-1.902 3.055h3.044l1.268-.636v-2.546h-2.029v-1.4c.38.127 1.243.025 1.649-1.4L68.964 34.59l-.76-1.019 4.058-6.953-2.537-.557zm0 0l2.537.557-2.537-.557zm2.537.557l.507.111-.507-.111zm.507.111l-.888 3.023 1.649-2.856-.76-.167z" stroke="#000"/><path d="M72.586 12.535a7.728 7.728 0 01-.28 1.659h-.213a6.732 6.732 0 00-.031-1.63 4.924 4.924 0 00-.286-1.14 2.734 2.734 0 00-.172-.356h.668c.11.125.192.302.246.529.065.272.084.595.068.938z" fill="#000" stroke="#000"/><path d="M39.667 53.811l-10.4.255-.634-1.655 2.79-5.474-.507-.51c-1.623-.712-.592-2.545.127-3.436h2.41c2.79 1.273 3.424 4.2 3.043 5.22h2.03l.253 1.654c1.116.204 1.1 2.716.888 3.946z" fill="#A37412"/><path d="M33.58 44.264c-.55-.333-1.903-.416-2.918 1.919m.634 7.883c-.203-1.12-1.611-2.546-2.029-2.673.265-.596.834-1.144 1.115-1.783l.914 4.456zm-.914-4.456c.009.128.66.382 3.197.382h5.454c.296 0 .862.739.76 3.692l-9.411-4.074zm0 0c.249-.566.484-1.102.668-1.527h6.08l-6.748 1.527zm-3.651 1.655l-.127.128.127-.128zm-.127.128c.507-1.061 1.649-3.616 1.649-3.82l.126-.636-1.775 4.456zm0 0l-1.142-.382 1.142-1.91c.211-.424.888-1.63.888-2.036l-.888 4.328zm1.141-4.838c.085-.466.102-1.63-.507-1.527l.507 1.527zm-.38-2.673c.38.127 1.446 1.375 1.141 2.8l-1.141-2.8zm3.685-1.018c-.423.528-1.3 1.827-.895 2.8.136.137.319.323.507.519l.388-3.32zm.246 4.003a21.792 21.792 0 00-.634-.684l.634.684zm0 .198c.212-.807 1.42-2.495 2.03-1.783l-2.03 1.783z" stroke="#000"/><path d="M24.701 38.026v4.583c7.483-9.292 12.049-11.33 14.205-12.348 1.725-.814 9.343-2.46 12.936-3.182-.127-.042-.025-.102 1.395 0 1.776.127 1.395 0 4.82-1.527 3.348-.408 3.34-2.97 2.917-4.201-.212-.467-1.547-1.426-5.2-1.528-3.509.34-11.617 1.044-15.98 1.146-4.363.102-7.314 2.418-8.244 3.564L24.7 38.026z" fill="#FFCA40"/><path d="M61.227 20.46l7.103-7.256c.169-1.018.837-2.979 2.156-2.673.38.763.99 2.418.38 2.928-.566.473-1.176.69-1.463.752.395-.066 1.083.031 1.083.902 0 .917.761 4.838-.634 10.82l-7.736 12.094-12.303 20.112.634 4.837c.338.34.812 1.324 0 2.546l-3.17.51.126-2.419 1.903-.254-.38-3.437-1.523 1.527c.339-.89.761-2.724-.253-2.928l-.127-.382L58.564 26.57c.634-.467 2.055-1.426 2.663-1.528 1.015-.77 2.537-2.68.508-4.148l-.508-.434z" fill="#FFCA40"/><path d="M47.276 58.903c-.608-.713-1.268 0-1.268.51v1.781c.042.637 0 2.011-.507 2.419-.507.407-.507 1.273-.38 1.655.253.763 1.14 1.374 1.648.763.508-.61.38-1.951.254-2.545l.127-2.292c.608-1.426.344-2.037.127-2.29zm23.59-32.461l-.507-.127-5.453 8.784c-.254.084-.736.407-.635 1.018.102.61.635-.085.888-.51l.507.764c1.117 1.732 1.903-.466 2.157-1.782l3.043-8.146z" fill="#FFCA40"/><path d="M49.813 58.14l12.303-20.113 7.736-12.094c1.395-5.982.634-9.903.634-10.82 0-.916-.761-.976-1.142-.89.254-.043.914-.255 1.522-.764.61-.51 0-2.165-.38-2.928-1.32-.306-1.987 1.655-2.156 2.673l-7.102 7.256.507.434c2.03 1.468.507 3.377-.508 4.148-.608.102-2.029 1.061-2.663 1.528L47.023 58.14l.127.381c1.014.204.592 2.037.253 2.928l1.522-1.527.888-1.783zm0 0l.634 4.837c.338.34.812 1.323 0 2.545l-3.17.51.126-2.419 1.903-.254-.38-3.437.887-1.783zm0 0c-.211-.51-.583-1.706-.38-2.42l.38 2.42zm-.888 1.782c.043-.425.051-1.503-.253-2.42l.253 2.42zm.508-4.201c.253-.891-.38-1.146-.635-.891l-.126-.128c.211-.17.684-.305.887.51l-.126.509zM24.7 42.609v-4.582l6.849-13.494c.93-1.145 3.88-3.462 8.244-3.564 4.363-.102 12.471-.806 15.98-1.146 3.653.102 4.988 1.061 5.2 1.528.423 1.23.43 3.793-2.917 4.2-3.425 1.528-3.044 1.655-4.82 1.528-1.42-.102-1.522-.042-1.395 0-3.593.721-11.211 2.368-12.936 3.183-2.156 1.018-6.722 3.055-14.205 12.347zm21.307 16.803c0-.509.66-1.222 1.268-.509.218.255.482.866-.126 2.291l-.127 2.292c.127.594.253 1.934-.254 2.545s-1.395 0-1.649-.763c-.126-.382-.126-1.248.38-1.655.508-.407.55-1.782.508-2.419v-1.782zM70.36 26.316l.507.128-3.043 8.147c-.254 1.315-1.04 3.513-2.156 1.782l-.508-.764c-.253.424-.786 1.12-.888.51-.101-.612.38-.934.635-1.02l5.453-8.783z" stroke="#000" stroke-width=".6"/><path fill-rule="evenodd" clip-rule="evenodd" d="M32.184 28.225l.254-.637c.057-.058.112-.11.164-.159.287-.273.47-.446.47-.986 0-.637-.507-.892-.888-.892-.634 0-1.014.51-1.014.892 0 .509.253.763.38.89l-.254.892h.888zM3.394 65.74l10.654 2.291h7.483c.26-.871.482-1.929.593-3.055l11.202 1.654c.084 0 .507.357 1.521 1.783 1.015 1.425 1.945 1.273 2.283 1.018l13.57-.636 2.03-2.673h-4.82l-.633-.219-.127-.51-.508.892-.76-.127-.635-.51-.253-.89.253-.891.508-.673c.012-.19.04-.462.073-.781v-.002c.077-.75.18-1.762.18-2.618 0-1.222.719-1.23 1.015-1.146l.507.764v1.273l.254-1.273-.127-.382-.634-.636.634-1.946-.127-.127-1.268-1.273-1.015-3.946h-1.522l.127 3.819h-.38l-.888-3.82h-1.776v3.82h-.38l-1.015-3.82h-1.522v3.82h-.507l-.76-3.82h-1.777v3.82h-.507l-.888-3.82h-.38v-.345h-2.03l.254 2.928H29.45l-.943-2.582h-2.79v-1.11l-.254-2.418-.76-.255V38.88l-.508-3.691v-2.546c0-.611-1.691-.68-2.537-.637l-1.521 1.019H17.6c.203-1.935-1.607-1.74-2.537-1.4l-2.79 1.782-1.522.381c-.338.68-1.04 2.063-1.141 2.164-.102.102-.212 2.25-.254 3.31a80.98 80.98 0 00-3.551.764c-1.725.407-1.818 2.8-1.649 3.946-1.217.407-2.198 2.122-2.536 2.928v5.219l-.38.382v1.655l.633.764h13.064v.636c-8.219-.102-9.428-.042-9.005 0-3.17 0-7.23 6.747-2.536 10.184zm15.854-30.006c1.099-.551 3.678-.254 3.931.51.254 1.618.216 2.927 0 3.946-.126.6-.465.982-.634 1.109h-2.283c.127-.934.102-2.928-1.014-3.437v-2.128zm-2.283.855v4.583h-1.522V36.59h1.522zm-4.82 0h2.03v4.2l-2.157-.381.127-3.819zm-.887 0h-.508l-.127 3.819h.508l.127-3.819z" fill="#000"/><path d="M72.77 26.824l-.508-.127-3.932 6.874 1.395 1.782 3.044-8.529zm-17.757 14.13c.38-.212 1.09-.407.888.51l-4.693 7.255c.297.17.764.535.761.637 0 .713.076.704-.127.636-.202-.067-.333-.16-.481-.254-.026.509.025 1.476-.787 1.273-.811-.204-.423-1.1-.127-1.528-.095-.001-.308-.007-.38 0l.254-.764.507-.127 4.185-7.638z" fill="#D39107"/><path d="M51.208 48.72l4.693-7.257c.203-.916-.507-.721-.888-.509l-4.185 7.638.38.127zm0 0l-.38-.128.38.127zm0 0c.297.169.764.534.761.636 0 .712.076.704-.127.636-.202-.067-.333-.16-.481-.255l-.153-1.018zm-.38-.128l-.507.127-.254.764c.072-.007.285-.001.38 0l.38-.891zm.532 1.145c-.025.51.026 1.477-.786 1.273-.811-.203-.423-1.1-.127-1.527l.913.255zm0 0a1.636 1.636 0 00-.913-.254l.913.255zm20.902-23.04l.507.127-3.044 8.53-1.395-1.783 3.932-6.874z" stroke="#000" stroke-width=".6"/><path d="M56.788 16.005c-.507.127-.887-.566 0-.764 3.425-.764 10.451-2.572 11.669-2.674.535-.044.634.255.38.51l-12.049 2.928z" fill="#fff"/><path d="M35.355 21.86c-1.218.407-2.706 1.867-3.298 2.546 1.218-2.444 4.143-3.904 5.454-4.328l1.775-1.273 2.283 1.273 7.99-.255v-1.91l4.567-.636v-.254h.634v.89l-3.678.51.126 1.91c1.057-.043 3.044-.077 2.537.127-.634.254-9.385.382-13.317.509-3.932.127-3.551.382-5.073.891z" fill="#D39107"/><path d="M37.511 20.078l1.649.127m-1.649-.127l1.775-1.273 2.283 1.273 7.99-.255v-1.91l4.567-.636v-.254h.634v.89l-3.678.51.126 1.91c1.057-.043 3.044-.077 2.537.127-.634.254-9.385.382-13.317.509-3.932.127-3.551.382-5.073.891-1.218.407-2.706 1.867-3.298 2.546 1.218-2.444 4.143-3.904 5.454-4.328z" stroke="#000" stroke-width=".6"/><path d="M14.736 68.315h5.273a.282.282 0 000-.565h-.002l-.041-.002-.04-.002a6.738 6.738 0 00-.081-.003l-.157-.008a.283.283 0 00-.17-.494l-3.758-.23.034-.096h4.215a.282.282 0 00.016-.565l-3.396-.2h3.38a.282.282 0 00.022-.563l-2.501-.2h2.86a.282.282 0 00.015-.564l-4.095-.238c.017-.155.03-.313.039-.47h4.294a.282.282 0 00.015-.565l-3.564-.2h3.676a.282.282 0 00.015-.565l-4.464-.24a8.195 8.195 0 00-.008-.093l4.59-.12a.282.282 0 00.006-.565l-4.718-.232a9.184 9.184 0 00-.163-.752l3.997-.233a.283.283 0 00-.017-.565l-2.46.006 1.587-.078a.282.282 0 00-.007-.564l-2.759-.072 1.758-.128a.283.283 0 00-.026-.565l-3.623.065c-1.43-1.115-4.21-2.773-7.525-2.865a.282.282 0 00-.07.558c1.29.293 3.217.942 4.89 1.775.836.417 1.599.874 2.184 1.349.592.48.968.951 1.088 1.386.612 2.211.499 3.927-.234 6.277-.124.14-.25.235-.398.3-.164.072-.372.115-.662.123-.594.018-1.451-.103-2.833-.308a.283.283 0 00-.323.28v.127c0 .135.096.251.229.277.554.107 1.41.255 2.181.35.385.047.754.083 1.056.093.151.005.29.004.41-.006.085-.008.18-.02.265-.05zM29.432 36.64a.28.28 0 00.36-.19l2.282-8.02a.284.284 0 00-.27-.36h-.254a.282.282 0 00-.27.2l-2.409 7.892a.283.283 0 00.18.35l.38.128zm6.924-.485c-.05.148.03.309.178.358l.38.127a.28.28 0 00.361-.194l.761-2.8a.28.28 0 00-.47-.274l-.38.382a.283.283 0 00-.069.11l-.76 2.291z" fill="#fff" stroke="#000" stroke-width=".6" stroke-linejoin="round"/><path d="M8.721 47.447l-6.975.89C1.34 44.062 6.185 43.33 8.848 43.5l-.127 3.31c1.804.127 5.378 3.08 5.58 5.728h-5.58l-5.96.637 5.326-.228.634-.01 15.98-.271c.254.212.61.764 0 1.273l-15.98.382H1.746c-.338-.34-.812-1.222 0-2.037l6.975-.382v-4.455z" fill="#FFCA40"/><path d="M8.721 54.32l15.98-.381c.61-.51.254-1.061 0-1.273l-16.614.281m.634-5.5l-6.975.89C1.34 44.062 6.185 43.33 8.848 43.5l-.127 3.31v.637zm0 0v-.637.637zm0 0v4.455-4.455zm0 4.455l-6.975.382c-.812.815-.338 1.697 0 2.037H8.72V51.9zm0 0v.636-.636zm0 .636l-5.96.637 5.326-.228.634-.409zm0 0h5.58c-.202-2.647-3.776-5.6-5.58-5.728v5.728zm0 1.783v-1.384l-.634.01.634 1.373z" stroke="#000"/><path d="M51.694 61.483l1.521-2.202.124.932.111.835.413-.733 3.805-6.746.067-.119-.05-.126-.21-.525 1.046-2.332.529-.212.1-.04.047-.096 5.327-10.693.203-.409H63.69a13.293 13.293 0 00-.944-.295l-.016-.004c1.386.254 2.231-.163 2.52-.51l.003-.004.003-.004.781-1.008.463.093.074.015.07-.024.381-.127.11-.037.053-.105.634-1.273.01-.018.005-.019.496-1.492 1.435 1.345-2.912 6.576-.643.215-.094.032-.053.083-4.186 6.492-.045.07v1.019l-1.068.321-.266.08.077.268.222.779-1.156 2.087-.775.222-.108.03-.057.097-3.931 6.62-.006.009-.005.009-1.014 2.037-.026.053-.003.06-.116 2.308-.463.058V62.44h-2.03v-.835h.499l.084-.121zM56.42 20.17l.03-.09c.077 0 .156 0 .238.003-.596 1.701-1.607 5.117-1.703 7.62-.063 1.653-.067 2.941.296 4.17.366 1.238 1.096 2.39 2.445 3.802 1.024 1.07 1.999 1.791 2.823 2.259a9.184 9.184 0 01-.255-.128c-1.363-.707-2.911-1.943-4.408-4.384l-.004-.008-.006-.007c-.52-.737-.827-1.725-.967-2.864-.14-1.136-.11-2.403.022-3.68.266-2.556.945-5.118 1.489-6.694zm-.946 0l-.023.022c-.236.224-.503.553-.792 1.013-.579.922-1.258 2.39-1.945 4.645l-.002.006-.002.007c-1.351 5.322 1.426 9.857 2.989 11.469l.007.008.009.007c.333.293.507.755.575 1.255.069.496.026.986-.032 1.278l-.005.027v.028a.716.716 0 01-.125.392c-.08.113-.218.216-.481.216-.143 0-.2-.03-.217-.042-.01-.008-.02-.018-.025-.05a.426.426 0 01.02-.174.957.957 0 01.048-.129c.325-.168.55-.385.679-.646.14-.282.148-.582.09-.857-.111-.534-.483-1.032-.775-1.327-2.382-2.475-5.815-9.35-.388-17.026a1.78 1.78 0 01.395-.122z" fill="#000" stroke="#000" stroke-width=".4"/><path fill-rule="evenodd" clip-rule="evenodd" d="M31.767 27.08c.184.023.37-.24.414-.588.045-.349-.067-.651-.25-.675-.184-.024-.37.24-.415.588-.045.349.068.65.251.675zm-15.436 7c.49 0 .888-.385.888-1.018s-.397-1.018-.888-1.018c-.49 0-.887.385-.887 1.018s.397 1.018.887 1.018zM8.848 46.646c3.755.815 5.285 3.904 5.58 5.347l.128.381 9.639.128.634-.51-.38-14.766-.254-2.546h-2.41c0-1.12-1.015-1.57-1.522-1.654H17.6c0 1.782-2.664 1.4-2.664.89-.623-1.874-2.101-1.049-3.235-.416l-.062.035c-1.218-.408-1.86.594-2.03 1.145l-.76 11.966zm32.595 15.948c-.101 2.648-4.185 7.041-4.946 6.62-1.776-.982-2.41-2.2-2.663-3.346-.209-.941-.508-2.8-.762-5.728-.887-2.928-.972-7.13-.76-8.911 0 1.425.338 2.97.507 3.564 1.116 3.666 4.143 3.94 5.58 3.6 1.057.298 3.146 1.553 3.044 4.201zm-37.794.728v-1.91l9.765.637v2.546L3.65 63.322zm35.258 4.837l-1.269 1.055 12.937-.51.76-1.018-12.428.473zm-3.044-12.984h-.761l.127-3.819.634 3.819zm2.283-3.819l.634 3.819h-.634v-3.819zm3.55 3.819h-.633v-3.819l.634 3.819zm2.284 0h.634l-.761-3.946.127 3.946zM12.02 34.553c.718-.636 2.18-1.527 2.282 0 .102 1.528.212 10.65.254 15.021-.562-.891-1.931-2.8-2.917-3.31l.38-11.71zm-.508 0c-.423-.085-1.268-.025-1.268.891 0 .917-.085 7.002-.127 9.93l1.015.89.38-11.71zm11.922 1.4c-.102-1.018-3.763-1.188-5.58-1.145-2.233 0-2.706.509-2.664.764.042 4.243.127 13.035.127 14.257 0 1.222.845 1.867 1.268 2.036h6.088c.913 0 1.31-.594 1.395-.89l-.38-11.075c-.043-.892-.153-2.928-.254-3.947zm.634-2.51c0 .563-.398.892-.888.892s-.888-.329-.888-.891c0-.563.398-.891.888-.891s.888.328.888.89z" fill="#9C9B9B"/><path fill-rule="evenodd" clip-rule="evenodd" d="M54.506 15.75c-.634.254-1.497.738.126.636 1.725-.61.635-.679-.126-.636zm-10.02 2.418c-1.141.425-2.74 1.12 0 .51 2.74-.611 6.553-1.528 8.117-1.91.72-.382 1.599-1.018-.634-.51-2.232.51-5.918 1.486-7.483 1.91zm-29.93 36.498v-.382l14.838.127v.51l-14.839-.255zm13.063.255H16.458v.763h10.907l.254-.763zm-8.752 1.145h4.186v1.527c.084.043.279.103.38 0 .064-.063.064-.445.064-.81 0-.367 0-.717.063-.717h2.283v1.527h.507v-1.527h1.268v1.527h4.566v.637H21.531v-.382h-1.142l-1.522-1.782zm14.078 6.365H22.672v.891l10.273.637V62.43zM22.8 64.341c2.537.636 8.117 1.767 10.146 1.563v.382c-1.818-.17-6.392-.739-10.146-1.655v-.29zm18.897-1.528c.102-1.935-.972-3.267-1.522-3.692l-.126-.127h5.96c-.101.611-.21 2.8-.253 3.82h-4.059zm-1.892 4.221l.002-.002h.002v-.001c.135-.146.264-.285.366-.4l12.176-.218-.888 1.019-12.43.509c0-.075.406-.51.773-.907zM2.416 64.197c-.477-1.61-1.164-3.926.978-6.349-1.141 1.055-2.79 3.092-.887 6.656l-.09-.307zm63.504-26.68l.38.255-6.34 12.348-.381-.255 6.341-12.348zm.888.637l-.38-.255-6.215 12.348.254.127 6.341-12.22zm1.395-1.273l.38.127-.126.51h-.254v-.637zM59.58 50.5h-.38l-1.142 1.91v.382h.38l1.142-1.91V50.5zm.254.51l.253-.128v.382l-1.015 1.91h-.253v-.382l1.015-1.782zm-1.65 2.545l-.38.255-4.566 8.274v.382h.381l4.693-8.401-.127-.51zM16.839 33.063c0 .395-.227.636-.507.636s-.507-.24-.507-.636c0-.395.227-.637.507-.637s.507.242.507.637zm6.354.942c.26 0 .47-.217.47-.573s-.21-.573-.47-.573c-.259 0-.47.217-.47.573s.211.573.47.573zm37.402-11.38c0 .492-.284.89-.635.89-.35 0-.634-.398-.634-.89s.285-.891.634-.891c.35 0 .635.399.635.89zm5.707 13.366c.21 0 .38-.285.38-.637 0-.351-.17-.636-.38-.636s-.38.285-.38.636c0 .352.17.637.38.637z" fill="#5B5B5B"/><path d="M25.859 51.091l3.538-11.92.026-.018.38-.255.1-.067.021-.118.254-1.4.01-.05-.01-.05c-.057-.318-.169-.567-.332-.748a.983.983 0 00-.577-.315c-.395-.066-.795.09-1.035.234l-.095.057-.03.107-.508 1.783-.03.105.05.099.1.202-2.91 10.415-.01.038v2.103h.998l.06-.202zm5.422-.418l-.112.366h1.6l.063-.196 3.665-11.289.342-.114.124-.041.048-.122.761-1.91.039-.095-.033-.099c-.114-.343-.28-.6-.492-.772a1.159 1.159 0 00-.691-.26c-.455-.022-.892.194-1.152.384l-.067.05-.03.077-.634 1.655-.02.049v.777l.117.032-3.528 11.508z" fill="#5B5B5B" stroke="#000"/><path fill-rule="evenodd" clip-rule="evenodd" d="M48.926 56.102c.14 0 .253-.228.253-.509s-.113-.509-.253-.509-.254.228-.254.51c0 .28.114.508.254.508zm1.141 8.656c.21 0 .38-.341.38-.763s-.17-.764-.38-.764-.38.342-.38.764.17.763.38.763zm-3.424 0c0 .422-.17.765-.38.765s-.381-.343-.381-.765c0-.421.17-.763.38-.763s.38.342.38.763zm.126-4.582c.21 0 .38-.228.38-.51 0-.28-.17-.509-.38-.509s-.38.229-.38.51.17.509.38.509z" fill="#000"/><path d="M83.19 25.197h2.75l1.498 6.027.86 4.132.65-4.108 1.265-6.052h2.885l-2.96 13.15a12.552 12.552 0 01-.466 1.721 5.798 5.798 0 01-.675 1.304 3.085 3.085 0 01-1.007.923c-.392.22-.875.385-1.448.492-.565.098-1.228.122-1.99.073v-2.472c.754.05 1.323-.024 1.707-.221.385-.197.63-.599.737-1.206l.025-.16-3.831-13.603zm11.05 17.638V25.196h3.842l2.038 12.522 1.891-12.522h3.843v17.639h-2.616V30.19l-1.915 12.644h-2.615l-2.063-12.473v12.473H94.24zm13.505-7.552V32.76h5.021v2.522h-5.021zm6.899 7.552V40.67c0-.697.098-1.353.295-1.968a6.221 6.221 0 01.785-1.624 15.19 15.19 0 011.069-1.353l1.166-1.316c.393-.435.749-.881 1.068-1.34.327-.46.589-.988.786-1.587a6.056 6.056 0 00.307-1.944c0-.754-.119-1.279-.356-1.574-.238-.295-.594-.443-1.068-.443-.958 0-1.437.578-1.437 1.735v1.893h-2.615v-1.722c0-1.418.352-2.509 1.056-3.271.704-.77 1.727-1.156 3.069-1.156 1.343 0 2.366.385 3.07 1.156.703.762 1.055 1.853 1.055 3.271a7.68 7.68 0 01-.307 2.178c-.204.688-.47 1.3-.798 1.832a13.839 13.839 0 01-1.068 1.538c-.384.484-.773.939-1.166 1.365-.393.418-.753.82-1.08 1.205-.32.386-.582.784-.786 1.194-.205.41-.307.808-.307 1.193 0 .172.008.3.024.381h5.231v2.522h-7.993zm9.736-4.232v-9.176c0-1.41.364-2.5 1.093-3.271.728-.77 1.768-1.156 3.118-1.156 1.351 0 2.386.385 3.106 1.156.729.77 1.093 1.861 1.093 3.271v9.176c0 1.411-.364 2.502-1.093 3.272-.72.771-1.755 1.156-3.106 1.156-1.35 0-2.39-.385-3.118-1.156-.729-.77-1.093-1.86-1.093-3.272zm2.775.173c0 1.164.479 1.746 1.436 1.746.95 0 1.424-.582 1.424-1.746v-9.52c0-1.157-.474-1.735-1.424-1.735-.957 0-1.436.578-1.436 1.735v9.52zm7.428 4.059V40.67c0-.697.098-1.353.295-1.968a6.191 6.191 0 01.786-1.624c.327-.467.683-.918 1.067-1.353.393-.443.783-.88 1.167-1.316.393-.435.749-.881 1.068-1.34.328-.46.589-.988.786-1.587a6.029 6.029 0 00.307-1.944c0-.754-.119-1.279-.356-1.574-.238-.295-.593-.443-1.068-.443-.958 0-1.437.578-1.437 1.735v1.893h-2.615v-1.722c0-1.418.352-2.509 1.056-3.271.704-.77 1.727-1.156 3.069-1.156 1.343 0 2.366.385 3.07 1.156.704.762 1.056 1.853 1.056 3.271a7.72 7.72 0 01-.307 2.178 7.639 7.639 0 01-.799 1.832 13.83 13.83 0 01-1.067 1.538c-.385.484-.774.939-1.167 1.365-.393.418-.753.82-1.08 1.205a6.244 6.244 0 00-.786 1.194c-.205.41-.307.808-.307 1.193 0 .172.008.3.025.381h5.229v2.522h-7.992zm9.735-4.232v-9.176c0-1.41.365-2.5 1.093-3.271.728-.77 1.768-1.156 3.118-1.156 1.351 0 2.386.385 3.107 1.156.728.77 1.092 1.861 1.092 3.271v9.176c0 1.411-.364 2.502-1.092 3.272-.721.771-1.756 1.156-3.107 1.156-1.35 0-2.39-.385-3.118-1.156-.728-.77-1.093-1.86-1.093-3.272zm2.775.173c0 1.164.479 1.746 1.436 1.746.95 0 1.424-.582 1.424-1.746v-9.52c0-1.157-.474-1.735-1.424-1.735-.957 0-1.436.578-1.436 1.735v9.52zM85.476 49.675a4.588 4.588 0 01-.386.707 1.296 1.296 0 01-.452.422c-.174.092-.395.137-.664.137a2.01 2.01 0 01-.315-.024 1.545 1.545 0 01-.261-.065v-.53c.079.036.164.066.255.09.091.02.186.03.285.03.222 0 .396-.048.522-.143.131-.095.252-.264.363-.505l-1.633-3.159h.588l1.181 2.338c.02.04.044.09.071.154a2 2 0 01.072.173h.023l.06-.155a2.88 2.88 0 01.06-.154l1.02-2.356h.564l-1.353 3.04zm1.929 1.207v-4.247h3.182v4.247h-.528v-3.777h-2.12v3.777h-.534zm5.465-4.247c.554 0 .958.11 1.211.328.254.217.38.524.38.921 0 .234-.053.454-.16.66-.103.203-.28.367-.529.494-.245.127-.58.19-1.003.19h-.487v1.654h-.534v-4.247h1.122zm-.047.458h-.54v1.678h.427c.404 0 .704-.066.902-.197.198-.13.297-.353.297-.666 0-.273-.087-.478-.261-.613-.174-.134-.45-.202-.825-.202zm4.883 3.789l-.51-1.315h-1.68l-.505 1.315h-.54l1.656-4.265h.48l1.651 4.265h-.552zm-1.146-3.075a18.205 18.205 0 01-.142-.428 3.542 3.542 0 00-.06-.209 5.45 5.45 0 01-.184.637l-.48 1.284h1.341l-.475-1.284zm3.49-1.172c.53 0 .93.08 1.199.238.273.155.409.426.409.815 0 .25-.069.458-.207.625-.139.162-.339.267-.6.315v.03c.178.027.338.079.481.154a.842.842 0 01.344.32c.083.14.125.32.125.543 0 .384-.133.681-.398.892-.261.21-.619.315-1.074.315h-1.49v-4.247h1.211zm.107 1.808c.364 0 .613-.057.748-.172.134-.12.201-.294.201-.524 0-.234-.083-.4-.249-.5-.162-.102-.423-.154-.784-.154h-.7v1.35h.784zm-.784.446v1.54h.855c.376 0 .637-.073.783-.22a.78.78 0 00.22-.576c0-.222-.077-.4-.232-.536-.15-.138-.421-.208-.813-.208h-.813zm6.378 1.993h-.534v-3.777h-1.342a75.204 75.204 0 01-.249 1.85 12.97 12.97 0 01-.131.75 3.694 3.694 0 01-.19.677.954.954 0 01-.303.422.772.772 0 01-.486.143.966.966 0 01-.208-.023.947.947 0 01-.178-.048v-.446c.043.02.093.037.148.054a.88.88 0 00.178.017.322.322 0 00.279-.143c.071-.099.127-.22.166-.363.04-.146.074-.29.101-.434.032-.15.07-.37.113-.66.048-.293.097-.634.149-1.023.055-.388.11-.803.166-1.243h2.321v4.247zm3.521 0h-2.369v-4.247h2.369v.47h-1.834v1.326h1.727v.464h-1.727v1.517h1.834v.47zm4.171 0h-.534v-1.98h-2.173v1.98h-.534v-4.247h.534v1.796h2.173v-1.796h.534v4.247zm1.165-4.247h.499v2.332a18.015 18.015 0 01-.042 1.183h.024l2.333-3.515h.594v4.247h-.499v-2.308c0-.147.002-.303.006-.47a49.194 49.194 0 01.042-.755h-.024l-2.339 3.533h-.594v-4.247zm6.92 4.247h-2.369v-4.247h2.369v.47h-1.835v1.326h1.728v.464h-1.728v1.517h1.835v.47zm4.777 0l-1.395-3.724h-.024c.012.123.022.29.03.5.008.206.012.423.012.649v2.575h-.493v-4.247h.79l1.306 3.48h.023l1.33-3.48h.784v4.247h-.528v-2.611c0-.206.003-.41.011-.613l.03-.494h-.024l-1.413 3.718h-.439zm5.885 0h-2.369v-4.247h2.369v.47h-1.835v1.326h1.728v.464h-1.728v1.517h1.835v.47zm3.809 0h-.606l-1.122-1.844-1.14 1.844h-.564l1.407-2.213-1.318-2.034h.594l1.039 1.666 1.045-1.666h.564l-1.312 2.022 1.413 2.225zm3.259 0l-.511-1.315h-1.68l-.504 1.315h-.541l1.657-4.265h.481l1.65 4.265h-.552zm-1.146-3.075c-.012-.032-.031-.09-.059-.173a10.61 10.61 0 01-.083-.256 3.515 3.515 0 00-.06-.208 6.368 6.368 0 01-.184.636l-.481 1.285h1.342l-.475-1.284zm5.519 3.075h-.534v-1.98h-2.173v1.98h-.534v-4.247h.534v1.796h2.173v-1.796h.534v4.247zm1.165-4.247h.499v2.332a18.015 18.015 0 01-.042 1.183h.024l2.333-3.515h.593v4.247h-.498v-2.308c0-.147.002-.303.006-.47l.024-.458.017-.297h-.023l-2.339 3.533h-.594v-4.247zm7.057.993c0 .29-.091.52-.273.69-.182.167-.426.274-.73.321v.024c.356.048.627.159.813.334a.893.893 0 01.279.683c0 .373-.143.676-.427.91-.286.234-.713.35-1.283.35-.229 0-.449-.017-.659-.052a2.017 2.017 0 01-.576-.179v-.488c.186.088.388.157.606.209.222.047.429.07.623.07.38 0 .667-.07.861-.213a.704.704 0 00.297-.607.62.62 0 00-.345-.589c-.229-.123-.55-.184-.961-.184h-.606v-.446h.576c.42 0 .732-.07.938-.208a.659.659 0 00.314-.571.57.57 0 00-.237-.494c-.158-.115-.364-.173-.617-.173-.265 0-.487.034-.665.102a2.849 2.849 0 00-.51.261l-.256-.363a2.459 2.459 0 011.437-.44c.459 0 .807.1 1.045.298.237.199.356.45.356.755zm3.644 3.254l-.51-1.315h-1.68l-.505 1.315h-.54l1.656-4.265h.481l1.65 4.265h-.552zm-1.145-3.075a6.035 6.035 0 01-.06-.173c-.028-.083-.055-.168-.083-.256a4.778 4.778 0 00-.059-.208 5.988 5.988 0 01-.185.637l-.48 1.284h1.341l-.474-1.284zm5.976 2.605V52h-.511v-1.118h-3.188v-4.247h.534v3.77h2.12v-3.77h.528v3.777h.517zm.708-3.777h.498v2.332c0 .13-.001.277-.006.44a11 11 0 01-.017.446 3.45 3.45 0 01-.018.297h.023l2.334-3.515h.593v4.247h-.498v-2.308c0-.147.002-.303.005-.47l.024-.458.018-.297h-.024l-2.339 3.533h-.593v-4.247zm4.556 0h.499v2.332a18.015 18.015 0 01-.041 1.183h.023l2.333-3.515H169v4.247h-.499v-2.308c0-.147.002-.303.006-.47a49.194 49.194 0 01.042-.755h-.024l-2.339 3.533h-.594v-4.247z" fill="#202022"/></svg>