<svg width="40" height="40" fill="none" xmlns="http://www.w3.org/2000/svg"><path fill-rule="evenodd" clip-rule="evenodd" d="M20 40c11.046 0 20-8.954 20-20S31.046 0 20 0 0 8.954 0 20s8.954 20 20 20zM8.021 8.29c3.088-2.832 8.609-3.254 11.177-3.285v-.001a18.41 18.41 0 011.385.02c7.156.027 10.359 2.36 11.156 3.095h.016c2.641 2.292 4.104 7.359 3.12 15.4-.874 7.102-5.832 8.351-7.489 8.769-.16.04-.29.073-.381.102-.453.146-4.386 1.13-9.521.703l-1.865 2.109c-.171.183-.33.364-.483.536-.736.834-1.296 1.469-2.168 1.193-.854-.265-.807-1.557-.807-1.557v-3.23c-7.505-2.12-7.411-9.905-7.333-14.051.094-4.161.896-7.526 3.193-9.802zm12.437-.998s-.443-.031-1.172-.026h-.002c-2.182.016-6.87.334-9.479 2.693-1.938 1.922-2.589 4.76-2.667 8.229l-.008.37c-.078 3.552-.215 9.8 5.93 11.5l-.031 5.359c-.01.292.042.505.214.547.12.026.308-.026.469-.203 1.016-1.01 4.266-4.932 4.266-4.932 4.364.28 7.828-.573 8.203-.693.087-.028.212-.057.368-.093 1.416-.33 5.352-1.244 6.07-7.11.839-6.714-.307-11.282-2.531-13.188-.682-.614-3.573-2.437-9.63-2.453zm-.845 3.47a.4.4 0 01.153-.028v-.001c2.359 0 4.365.797 5.948 2.344a8.614 8.614 0 012.417 6.349.4.4 0 01-.401.396v.016a.401.401 0 01-.401-.401c-.027-2.48-.735-4.375-2.188-5.786a7.514 7.514 0 00-5.375-2.12.401.401 0 01-.283-.683.396.396 0 01.13-.085zm-5.936 1.05c.246-.146.535-.202.818-.161l-.002-.002c.264.05.502.192.672.4a17.997 17.997 0 012.052 2.866c.385.683.135 1.375-.224 1.667l-.75.604c-.385.292-.333.865-.333.865s1.11 4.213 5.271 5.276l.016-.01s.558.052.865-.323l.599-.755c.281-.375.974-.6 1.656-.23a18.47 18.47 0 012.865 2.058c.443.37.547.917.24 1.495v.01a6.064 6.064 0 01-1.24 1.53c-.406.37-.923.59-1.469.63-.172 0-.343-.025-.531-.082v-.01c-.641-.188-1.709-.641-3.469-1.6a20.668 20.668 0 01-4.24-3.108l-.042-.036-.036-.042-.057-.042-.036-.052a20.371 20.371 0 01-3.094-4.23 18.026 18.026 0 01-1.604-3.463l-.026-.016a1.703 1.703 0 01-.063-.724c.052-.411.25-.838.615-1.26a6.29 6.29 0 011.526-1.255h.021zm6.786 1.829c-.536 0-.536-.802-.005-.802h.057c1.735.119 3.094.718 4.068 1.786.969 1.068 1.463 2.4 1.427 3.99a.404.404 0 01-.401.4l-.016-.02a.403.403 0 01-.401-.396 4.66 4.66 0 00-1.198-3.427 5.027 5.027 0 00-3.531-1.531zm.626 2.172c-.542-.016-.521-.834.026-.818h.016c1.729.094 2.703 1.1 2.797 2.886a.403.403 0 01-.385.427h-.016a.398.398 0 01-.396-.391c-.084-1.37-.724-2.036-2.042-2.104z" fill="#FFCA40"/></svg>